<svg xmlns="http://www.w3.org/2000/svg" viewBox="0 0 49 49" shape-rendering="crispEdges"><path fill="#FFFFFF" d="M0 0h49v49H0z"/><path stroke="#000000" d="M2 2.5h7m1 0h2m2 0h3m2 0h1m1 0h3m2 0h1m4 0h2m1 0h1m3 0h1m1 0h7M2 3.5h1m5 0h1m1 0h1m1 0h1m3 0h1m1 0h4m1 0h2m1 0h1m2 0h1m3 0h1m1 0h1m1 0h1m2 0h1m5 0h1M2 4.5h1m1 0h3m1 0h1m1 0h1m2 0h1m2 0h1m4 0h1m1 0h1m1 0h3m3 0h2m2 0h1m1 0h1m2 0h1m1 0h3m1 0h1M2 5.5h1m1 0h3m1 0h1m2 0h1m1 0h3m2 0h3m1 0h1m1 0h1m1 0h3m2 0h4m2 0h2m1 0h1m1 0h3m1 0h1M2 6.5h1m1 0h3m1 0h1m6 0h1m1 0h3m2 0h5m2 0h2m1 0h1m1 0h1m1 0h3m1 0h1m1 0h3m1 0h1M2 7.5h1m5 0h1m1 0h2m2 0h1m1 0h1m1 0h5m3 0h1m2 0h1m3 0h3m4 0h1m5 0h1M2 8.5h7m1 0h1m1 0h1m1 0h1m1 0h1m1 0h1m1 0h1m1 0h1m1 0h1m1 0h1m1 0h1m1 0h1m1 0h1m1 0h1m1 0h1m1 0h1m1 0h7M10 9.5h1m1 0h1m1 0h1m1 0h1m1 0h1m1 0h3m3 0h1m1 0h1m1 0h1m1 0h1m1 0h1m1 0h3M4 10.5h3m1 0h1m1 0h1m1 0h1m2 0h1m1 0h1m1 0h1m1 0h6m1 0h2m6 0h1m2 0h3m2 0h3M2 11.5h1m2 0h1m1 0h1m6 0h2m2 0h1m5 0h1m3 0h1m2 0h5m1 0h3m1 0h1m2 0h1m1 0h1M2 12.5h1m1 0h2m1 0h2m1 0h2m1 0h2m2 0h1m2 0h3m2 0h3m7 0h3m2 0h1m2 0h1M2 13.5h2m3 0h1m1 0h2m1 0h1m4 0h3m2 0h2m1 0h1m1 0h1m2 0h2m1 0h3m2 0h1m3 0h4M4 14.5h6m3 0h6m2 0h1m1 0h5m2 0h2m1 0h1m1 0h2m6 0h1m1 0h1M4 15.5h2m1 0h1m4 0h1m1 0h1m3 0h2m3 0h1m3 0h1m2 0h1m1 0h1m1 0h1m2 0h3m6 0h1M3 16.5h1m1 0h1m1 0h4m8 0h2m1 0h5m1 0h4m1 0h1m2 0h1m2 0h2m3 0h2M5 17.5h3m2 0h1m1 0h1m1 0h1m1 0h2m1 0h1m4 0h1m2 0h2m3 0h1m1 0h1m1 0h1m1 0h7M3 18.5h1m4 0h1m7 0h2m1 0h2m1 0h1m2 0h9m2 0h2m1 0h2m2 0h1m1 0h2M3 19.5h1m3 0h1m1 0h4m1 0h1m1 0h2m1 0h3m1 0h2m1 0h1m2 0h2m1 0h2m3 0h3m1 0h3m2 0h1M3 20.5h2m1 0h5m1 0h2m1 0h4m1 0h2m4 0h2m3 0h10m1 0h1m1 0h2M2 21.5h2m1 0h3m2 0h5m1 0h2m1 0h2m2 0h1m1 0h3m2 0h2m1 0h12m1 0h1M3 22.5h8m1 0h1m1 0h4m4 0h5m1 0h1m4 0h1m1 0h1m2 0h6M6 23.5h1m3 0h1m1 0h4m2 0h5m3 0h1m1 0h2m1 0h1m1 0h2m2 0h2m3 0h3m1 0h1M2 24.5h3m1 0h1m1 0h1m1 0h3m3 0h2m1 0h1m1 0h2m1 0h1m1 0h1m1 0h1m1 0h1m1 0h5m1 0h1m1 0h1m1 0h4M3 25.5h1m2 0h1m3 0h1m2 0h1m1 0h1m1 0h2m1 0h3m3 0h2m1 0h2m5 0h1m1 0h1m3 0h4M3 26.5h1m1 0h7m2 0h1m2 0h10m1 0h2m1 0h1m4 0h1m1 0h5m2 0h2M2 27.5h1m1 0h2m3 0h1m1 0h2m4 0h1m2 0h3m1 0h2m3 0h3m1 0h1m3 0h2m1 0h1m2 0h1m2 0h1M4 28.5h5m3 0h2m1 0h4m2 0h4m2 0h2m2 0h4m1 0h4M2 29.5h1m1 0h1m1 0h2m1 0h4m1 0h1m2 0h1m2 0h1m2 0h5m4 0h3m1 0h2m2 0h1m1 0h3m1 0h1M2 30.5h1m1 0h2m1 0h2m1 0h4m1 0h1m1 0h2m1 0h7m2 0h1m1 0h1m1 0h1m2 0h1m2 0h1m2 0h1M2 31.5h1m3 0h2m5 0h1m3 0h1m1 0h1m1 0h1m3 0h1m2 0h2m1 0h2m7 0h1m3 0h1m1 0h1M3 32.5h2m1 0h1m1 0h5m1 0h1m1 0h2m1 0h1m1 0h2m4 0h1m1 0h3m3 0h3m3 0h1m3 0h1M3 33.5h2m4 0h4m1 0h1m1 0h3m3 0h1m1 0h5m5 0h1m2 0h1m2 0h1m2 0h3M2 34.5h8m2 0h1m2 0h6m2 0h4m3 0h4m1 0h1m3 0h1m2 0h1m2 0h1M5 35.5h1m1 0h1m1 0h1m1 0h2m1 0h2m2 0h1m4 0h1m3 0h1m3 0h1m1 0h1m3 0h1m1 0h1m3 0h2m1 0h1M6 36.5h1m1 0h1m3 0h2m2 0h3m3 0h1m1 0h2m1 0h3m3 0h5m6 0h2M3 37.5h4m6 0h1m1 0h1m3 0h3m1 0h1m5 0h2m3 0h4m2 0h2m1 0h3M2 38.5h1m2 0h2m1 0h1m1 0h1m1 0h1m1 0h2m1 0h3m1 0h6m1 0h1m1 0h4m2 0h1m1 0h6m1 0h2M10 39.5h4m1 0h1m2 0h5m3 0h1m2 0h1m2 0h2m1 0h1m1 0h2m3 0h1m3 0h1M2 40.5h7m5 0h2m2 0h5m1 0h1m1 0h1m3 0h3m2 0h4m1 0h1m1 0h4M2 41.5h1m5 0h1m4 0h1m1 0h4m1 0h3m3 0h3m1 0h3m1 0h1m1 0h3m3 0h1m1 0h2M2 42.5h1m1 0h3m1 0h1m1 0h1m6 0h1m1 0h2m1 0h7m3 0h2m2 0h1m1 0h5M2 43.5h1m1 0h3m1 0h1m1 0h3m2 0h1m1 0h1m1 0h1m1 0h1m2 0h1m3 0h3m1 0h2m7 0h3m1 0h2M2 44.5h1m1 0h3m1 0h1m1 0h8m1 0h1m1 0h1m3 0h1m2 0h1m1 0h1m1 0h3m1 0h5M2 45.5h1m5 0h1m3 0h2m1 0h2m1 0h3m1 0h2m1 0h3m3 0h1m2 0h2m5 0h1m2 0h1M2 46.5h7m4 0h5m4 0h2m2 0h1m1 0h1m3 0h2m1 0h6m4 0h1"/></svg>
